<svg xmlns="http://www.w3.org/2000/svg" width="94.525" height="34.831"><path d="M91.709 24.587a2.8 2.8 0 0 0-2.5 1.557H75.525a1.96 1.96 0 0 1-1.923-1.957v-.5h0V8.177a2 2 0 0 0-1.98-1.973H60.184v-1.6a2.4 2.4 0 0 0-.938-4.609 2.4 2.4 0 0 0-.938 4.609v1.6h-2.499c-2.45.002-4.436 1.988-4.439 4.438v6.037c.007 1.088.89 1.967 1.978 1.97h11.5v5.529a1.96 1.96 0 0 1-1.958 1.959H47.58v-8.149h0V8.622c-.008-.915-.639-1.706-1.529-1.916l-.06-.015h-.01a2.02 2.02 0 0 0-.879.032 1.97 1.97 0 0 0-.887.506l-5.92 5.92h0l-.354.354c-.766.764-2.005.764-2.771 0l-.354-.354h0l-5.913-5.914a1.98 1.98 0 0 0-.888-.506 2.02 2.02 0 0 0-.879-.032h-.01a.26.26 0 0 0-.061.015c-.891.21-1.523 1.002-1.53 1.917v9.375h0v6.888a2.8 2.8 0 0 0 1.24 5.311 2.8 2.8 0 0 0 1.239-5.311v-6.888h0v-6.4h0V9.852l5.049 5.05h0l.354.354a4.44 4.44 0 0 0 6.277 0l.354-.354h0l5.054-5.056v6h0v10.817c.008 1.088.891 1.967 1.979 1.97h.5l10.734-.015v1.607a2.4 2.4 0 0 0 .938 4.6c1.171.057 2.209-.748 2.443-1.897s-.404-2.297-1.504-2.703V28.61h2.7c2.45-.003 4.435-1.988 4.438-4.438v-.5h0v-5.585c-.033-1.066-.903-1.916-1.97-1.922h-11.5v-5.527a1.96 1.96 0 0 1 1.959-1.958h15.314v15h0v.5c.003 2.413 1.932 4.382 4.344 4.436h13.747a2.8 2.8 0 0 0 5.279-1.668 2.8 2.8 0 0 0-2.779-2.367zm-64.947 3.758a.96.96 0 1 1 .001-1.924.96.96 0 0 1 .682 1.642.96.96 0 0 1-.679.282zm32.477 4.907c-.334 0-.635-.201-.762-.509s-.057-.663.179-.899.591-.307.899-.179.509.429.509.762h0c0 .219-.087.429-.241.584s-.365.242-.584.242zm0-31.676c.456.001.824.37.824.826s-.37.825-.825.824-.825-.369-.825-.825c0-.219.087-.429.242-.584s.365-.242.584-.241zm32.47 26.768a.96.96 0 1 1 .001-1.924.96.96 0 0 1 .68 1.643.96.96 0 0 1-.681.281z" fill="#3dbeba"/><path d="M16.6 16.78h-2.578v2.218H16.6c2.035 0 3.685 1.649 3.685 3.684s-1.649 3.685-3.684 3.686-3.685-1.648-3.686-3.683v-7.321a2.22 2.22 0 0 0-2.217-2.217v6.1a5.9 5.9 0 0 0-4.8-2.467H3.32v2.218h2.578c2.035.001 3.684 1.65 3.684 3.685s-1.649 3.684-3.684 3.685-3.685-1.648-3.686-3.683v-7.321a2.22 2.22 0 0 0-2.217-2.217v9.538a5.9 5.9 0 0 0 11.252 2.492 5.9 5.9 0 0 0 11.182-3.355 5.9 5.9 0 0 0-5.834-5.045" fill="#424242"/></svg>